<svg width="39" height="38" viewBox="0 0 39 38" fill="none" xmlns="http://www.w3.org/2000/svg">
<rect width="39" height="38" rx="5" fill="#FF7722"/>
<path d="M25.3636 28H12.6364C12.3953 28 12.164 27.9035 11.9935 27.7317C11.8231 27.5599 11.7273 27.3269 11.7273 27.0839V18.8389H9L18.3882 10.2385C18.5556 10.085 18.7737 10 19 10C19.2263 10 19.4444 10.085 19.6118 10.2385L29 18.8389H26.2727V27.0839C26.2727 27.3269 26.1769 27.5599 26.0065 27.7317C25.836 27.9035 25.6047 28 25.3636 28ZM13.5455 26.1678H24.4545V17.1505L19 12.1541L13.5455 17.1505V26.1678Z" fill="#E0E0E0"/>
</svg>
