<svg width="13" height="13" viewBox="0 0 13 13" fill="none" xmlns="http://www.w3.org/2000/svg">
<path d="M9.74225 10.444C8.71629 11.0947 7.52601 11.4394 6.31108 11.4374C3.16575 11.4374 0.548917 9.17408 0 6.18742C0.250851 4.82867 0.934283 3.58744 1.94833 2.64892L0.123083 0.825417L0.9485 0L12.4979 11.55L11.6725 12.3748L9.74225 10.444ZM2.77317 3.47492C1.98042 4.19568 1.42818 5.14254 1.19117 6.18742C1.37334 6.98452 1.73907 7.72808 2.25925 8.35893C2.77943 8.98978 3.4397 9.49048 4.18749 9.82118C4.93528 10.1519 5.74994 10.3035 6.56664 10.2638C7.38333 10.2242 8.17949 9.99446 8.89175 9.59292L7.70875 8.40992C7.20515 8.72714 6.6087 8.86381 6.01722 8.79751C5.42574 8.7312 4.87436 8.46586 4.4535 8.045C4.03264 7.62414 3.7673 7.07276 3.70099 6.48128C3.63469 5.8898 3.77136 5.29335 4.08858 4.78975L2.77317 3.47492ZM6.84425 7.54542L4.95308 5.65425C4.84929 5.91846 4.82486 6.20722 4.88279 6.48512C4.94073 6.76301 5.07851 7.01796 5.27924 7.21868C5.47996 7.41941 5.73491 7.55719 6.0128 7.61512C6.29069 7.67306 6.57945 7.64863 6.84367 7.54483L6.84425 7.54542ZM11.4485 8.86608L10.6137 8.03192C11.0037 7.47618 11.2813 6.84961 11.431 6.18742C11.2725 5.49309 10.9744 4.83825 10.5549 4.26271C10.1354 3.68716 9.60329 3.20292 8.99084 2.83944C8.37839 2.47595 7.69842 2.2408 6.99226 2.14828C6.2861 2.05576 5.5685 2.1078 4.88308 2.30125L3.96258 1.38075C4.69 1.09492 5.48275 0.937417 6.31108 0.937417C9.45642 0.937417 12.0732 3.20075 12.6222 6.18742C12.4434 7.15908 12.0417 8.07601 11.4485 8.86608ZM6.1495 3.56708C6.5208 3.54414 6.89273 3.60037 7.24065 3.73206C7.58857 3.86375 7.90452 4.06788 8.16757 4.33093C8.43062 4.59398 8.63475 4.90993 8.76644 5.25785C8.89813 5.60577 8.95436 5.9777 8.93142 6.349L6.1495 3.56708Z" fill="#E0E0E0"/>
</svg>
