<svg width="14" height="11" viewBox="0 0 14 11" fill="none" xmlns="http://www.w3.org/2000/svg">
<path d="M7 0C10.4887 0 13.3912 2.37111 14 5.5C13.3918 8.62889 10.4887 11 7 11C3.51132 11 0.608836 8.62889 0 5.5C0.608189 2.37111 3.51132 0 7 0ZM7 9.77778C8.31956 9.77751 9.59993 9.35417 10.6316 8.57705C11.6632 7.79993 12.385 6.71506 12.6788 5.5C12.3839 4.28591 11.6617 3.20222 10.6301 2.42613C9.59859 1.65003 8.3188 1.22743 7 1.22743C5.6812 1.22743 4.40141 1.65003 3.36987 2.42613C2.33833 3.20222 1.61608 4.28591 1.32119 5.5C1.615 6.71506 2.33679 7.79993 3.36843 8.57705C4.40006 9.35417 5.68044 9.77751 7 9.77778ZM7 8.25C6.22781 8.25 5.48725 7.96027 4.94123 7.44454C4.39521 6.92882 4.08846 6.22935 4.08846 5.5C4.08846 4.77065 4.39521 4.07118 4.94123 3.55546C5.48725 3.03973 6.22781 2.75 7 2.75C7.77219 2.75 8.51275 3.03973 9.05877 3.55546C9.60479 4.07118 9.91154 4.77065 9.91154 5.5C9.91154 6.22935 9.60479 6.92882 9.05877 7.44454C8.51275 7.96027 7.77219 8.25 7 8.25ZM7 7.02778C7.42899 7.02778 7.84042 6.86682 8.14376 6.5803C8.44711 6.29379 8.61752 5.90519 8.61752 5.5C8.61752 5.09481 8.44711 4.70621 8.14376 4.4197C7.84042 4.13318 7.42899 3.97222 7 3.97222C6.57101 3.97222 6.15958 4.13318 5.85624 4.4197C5.55289 4.70621 5.38248 5.09481 5.38248 5.5C5.38248 5.90519 5.55289 6.29379 5.85624 6.5803C6.15958 6.86682 6.57101 7.02778 7 7.02778Z" fill="#FF7722"/>
</svg>
